Coordinates
version=1
nRows=9
nColumns=63
inDegrees=yes

Units are S.I. units (second, meters, Newtons, ...)
If the header above contains a line with 'inDegrees', this indicates whether rotational values are in degrees (yes) or radians (no).

endheader
time	pelvis_tilt	pelvis_list	pelvis_rotation	pelvis_tx	pelvis_ty	pelvis_tz	hip_flexion_r	hip_adduction_r	hip_rotation_r	knee_angle_r	knee_angle_r_beta	ankle_angle_r	subtalar_angle_r	mtp_angle_r	hip_flexion_l	hip_adduction_l	hip_rotation_l	knee_angle_l	knee_angle_l_beta	ankle_angle_l	subtalar_angle_l	mtp_angle_l	L5_S1_Flex_Ext	L5_S1_Lat_Bending	L5_S1_axial_rotation	L4_L5_Flex_Ext	L4_L5_Lat_Bending	L4_L5_axial_rotation	L3_L4_Flex_Ext	L3_L4_Lat_Bending	L3_L4_axial_rotation	L2_L3_Flex_Ext	L2_L3_Lat_Bending	L2_L3_axial_rotation	L1_L2_Flex_Ext	L1_L2_Lat_Bending	L1_L2_axial_rotation	L1_T12_Flex_Ext	L1_T12_Lat_Bending	L1_T12_axial_rotation	Abs_r3	Abs_r2	Abs_r1	Abs_t1	Abs_t2	neck_flexion	neck_bending	neck_rotation	arm_flex_r	arm_add_r	arm_rot_r	elbow_flex_r	pro_sup_r	wrist_flex_r	wrist_dev_r	arm_flex_l	arm_add_l	arm_rot_l	elbow_flex_l	pro_sup_l	wrist_flex_l	wrist_dev_l
0.000000	1.683698	-3.817744	89.271907	-0.107071	0.774701	0.660050	7.410526	-1.825518	-5.039312	21.469302	0.374710	32.087244	-2.263213	0.000000	4.147659	-0.903189	-11.671243	11.820356	0.206304	38.411846	15.601196	0.000000	0.207780	-0.024041	1.920577	0.385869	-0.031974	2.040613	0.341362	-0.058452	2.040613	0.237472	-0.058452	1.680505	0.192945	-0.049024	1.560469	0.118726	-0.037239	1.440433	1.484153	-0.271952	10.681674	0.000000	0.000000	27.323885	-3.509766	-12.215209	5.286319	-11.567381	45.954752	47.243208	70.176943	-6.457494	5.468834	28.073090	-1.615432	103.795454	34.312366	25.770799	-0.202571	1.534470
0.018519	1.066514	-4.147068	88.377795	-0.106251	0.774790	0.661045	7.734544	-2.536230	-5.374926	21.261756	0.371088	32.057553	-0.570865	0.000000	4.628477	-0.382969	-12.383877	11.898344	0.207665	38.172841	15.834342	0.000000	0.227361	-0.082220	1.995627	0.422231	-0.109352	2.120354	0.373531	-0.199909	2.120354	0.259850	-0.199909	1.746174	0.211127	-0.167662	1.621447	0.129914	-0.127358	1.496720	1.624014	-0.930086	11.099080	0.000000	0.000000	27.501350	-3.402730	-11.546224	6.287167	-11.264373	47.241166	46.378990	76.381276	-5.268593	5.360814	27.354903	-1.981510	100.895005	34.221226	28.286835	-0.187954	2.600965
0.037037	0.550366	-4.422097	87.626060	-0.105484	0.774894	0.661928	8.005491	-3.125464	-5.650131	21.053101	0.367446	32.105884	0.944567	0.000000	5.028379	0.048054	-12.938413	11.953930	0.208635	37.960206	15.986723	0.000000	0.243445	-0.131758	2.057422	0.452101	-0.175237	2.186011	0.399955	-0.320355	2.186011	0.278233	-0.320355	1.800244	0.226063	-0.268680	1.671655	0.139104	-0.204092	1.543066	1.738901	-1.490467	11.442763	0.000000	0.000000	27.637039	-3.297557	-10.978599	7.183100	-10.976682	48.446208	45.596389	81.006236	-4.371830	5.186839	26.713952	-2.335125	98.252225	34.175925	30.297454	-0.263574	3.463955
0.055556	0.127444	-4.646898	87.004863	-0.104766	0.775012	0.662706	8.227050	-3.603027	-5.871792	20.844342	0.363802	32.222540	2.294437	0.000000	5.353307	0.397016	-13.348777	11.988586	0.209240	37.772557	16.065968	0.000000	0.256307	-0.173257	2.107154	0.475988	-0.230432	2.238851	0.421087	-0.421258	2.238851	0.292933	-0.421258	1.843760	0.238007	-0.353306	1.712063	0.146454	-0.268375	1.580366	1.830775	-1.959921	11.719360	0.000000	0.000000	27.734824	-3.194698	-10.503624	7.977374	-10.704927	49.564625	44.893957	84.199527	-3.738191	4.958131	26.146409	-2.674634	95.859519	34.170999	31.846395	-0.416038	4.141021
0.074074	-0.210062	-4.825535	86.502365	-0.104098	0.775140	0.663385	8.402905	-3.978723	-6.046776	20.636485	0.360175	32.397819	3.490102	0.000000	5.609204	0.671051	-13.628893	12.003782	0.209506	37.608514	16.079706	0.000000	0.266222	-0.207322	2.146019	0.494400	-0.275738	2.280145	0.437376	-0.504083	2.280145	0.304265	-0.504083	1.877766	0.247214	-0.422771	1.743640	0.152119	-0.321142	1.609514	1.901595	-2.345270	11.935512	0.000000	0.000000	27.798576	-3.094600	-10.112586	8.673249	-10.449722	50.591162	44.270247	86.108851	-3.338661	4.685912	25.648447	-2.998393	93.709293	34.200982	32.977395	-0.631955	4.649747
0.092593	-0.469962	-4.962073	86.106728	-0.103478	0.775276	0.663973	8.536740	-4.262358	-6.181947	20.430536	0.356580	32.622022	4.542916	0.000000	5.802013	0.877296	-13.792686	12.000990	0.209457	37.466692	16.035566	0.000000	0.273463	-0.234555	2.175208	0.507849	-0.311959	2.311159	0.449273	-0.570298	2.311159	0.312541	-0.570298	1.903307	0.253938	-0.478306	1.767357	0.156257	-0.363326	1.631406	1.953321	-2.653339	12.097857	0.000000	0.000000	27.832167	-2.997713	-9.796776	9.273982	-10.211685	51.520565	43.723812	86.881911	-3.144226	4.381403	25.216237	-3.304759	91.793954	34.260410	33.734192	-0.897932	5.007714
0.111111	-0.660066	-5.060579	85.806114	-0.102903	0.775418	0.664477	8.632240	-4.463738	-6.284173	20.227501	0.353036	32.885451	5.464237	0.000000	5.937678	1.022886	-13.854081	11.981682	0.209120	37.345711	15.941177	0.000000	0.278306	-0.255560	2.195918	0.516842	-0.339895	2.333162	0.457229	-0.621370	2.333162	0.318076	-0.621370	1.921428	0.258435	-0.521139	1.784183	0.159024	-0.395863	1.646938	1.987911	-2.890951	12.213035	0.000000	0.000000	27.839469	-2.904486	-9.547482	9.782832	-9.991432	52.347580	43.253205	86.666411	-3.125870	4.055825	24.845953	-3.592088	90.105906	34.343819	34.160526	-1.200576	5.232506
0.129630	-0.788185	-5.125117	85.588684	-0.102374	0.775563	0.664903	8.693087	-4.592668	-6.360318	20.028385	0.349561	33.178406	6.265419	0.000000	6.022140	1.114955	-13.827002	11.947330	0.208520	37.244188	15.804169	0.000000	0.281024	-0.270940	2.209340	0.521890	-0.360351	2.347423	0.461694	-0.658765	2.347423	0.321182	-0.658765	1.933172	0.260959	-0.552502	1.795089	0.160577	-0.419687	1.657005	2.007327	-3.064932	12.287685	0.000000	0.000000	27.824353	-2.815366	-9.355993	10.203058	-9.789579	53.066953	42.856979	85.610053	-3.254580	3.720401	24.533766	-3.858737	88.637556	34.445744	34.300134	-1.526496	5.341705
0.148148	-0.862127	-5.159753	85.442599	-0.101887	0.775710	0.665258	8.722967	-4.658953	-6.417249	19.834193	0.346172	33.491187	6.957818	0.000000	6.061344	1.160640	-13.725375	11.899405	0.207684	37.160741	15.632171	0.000000	0.281892	-0.281298	2.216669	0.523502	-0.374127	2.355210	0.463120	-0.683949	2.355210	0.322174	-0.683949	1.939585	0.261765	-0.573624	1.801043	0.161073	-0.435731	1.662501	2.013526	-3.182105	12.328446	0.000000	0.000000	27.790691	-2.730804	-9.213598	10.537917	-9.606743	53.673428	42.533687	83.860542	-3.501341	3.386352	24.275849	-4.103061	87.381310	34.560721	34.196754	-1.862298	5.352894
